<mxfile host="65bd71144e">
    <diagram id="tgdnEnlzlK66GER6y_em" name="Page-1">
        <mxGraphModel dx="3460" dy="2940" grid="1" gridSize="10" guides="1" tooltips="1" connect="1" arrows="1" fold="1" page="1" pageScale="1" pageWidth="850" pageHeight="1100" math="0" shadow="0">
            <root>
                <mxCell id="0"/>
                <mxCell id="1" parent="0"/>
                <mxCell id="2" value="User Profile Management" style="swimlane;startSize=30;horizontal=1;" parent="1" vertex="1">
                    <mxGeometry y="480" width="1680" height="560" as="geometry"/>
                </mxCell>
                <mxCell id="3" value="Profile Display" style="shape=note;whiteSpace=wrap;html=1;backgroundOutline=1;darkOpacity=0.05;fillColor=#b0deb3;strokeColor=none;fontSize=16;fontStyle=0;rotation=0;shadow=1;" parent="2" vertex="1">
                    <mxGeometry x="80" y="130" width="120" height="120" as="geometry"/>
                </mxCell>
                <mxCell id="4" value="User" style="shape=note;whiteSpace=wrap;html=1;backgroundOutline=1;darkOpacity=0.05;fillColor=#fee750;strokeColor=none;fontSize=16;fontStyle=0;rotation=0;shadow=1;" parent="2" vertex="1">
                    <mxGeometry x="300" y="130" width="120" height="120" as="geometry"/>
                </mxCell>
                <mxCell id="5" value="Edit Profile" style="shape=note;whiteSpace=wrap;html=1;backgroundOutline=1;darkOpacity=0.05;fillColor=#a7c5fc;strokeColor=none;fontSize=16;fontStyle=0;rotation=0;shadow=1;" parent="2" vertex="1">
                    <mxGeometry x="520" y="130" width="120" height="120" as="geometry"/>
                </mxCell>
                <mxCell id="6" value="Profile Edit Policy" style="shape=note;whiteSpace=wrap;html=1;backgroundOutline=1;darkOpacity=0.05;fillColor=#fef5b2;strokeColor=none;fontSize=16;fontStyle=0;rotation=0;shadow=1;" parent="2" vertex="1">
                    <mxGeometry x="740" y="100" width="240" height="180" as="geometry"/>
                </mxCell>
                <mxCell id="7" value="Edit Mode Activated" style="shape=note;whiteSpace=wrap;html=1;backgroundOutline=1;darkOpacity=0.05;fillColor=#feae57;strokeColor=none;fontSize=16;fontStyle=0;rotation=0;shadow=1;" parent="2" vertex="1">
                    <mxGeometry x="1080" y="130" width="120" height="120" as="geometry"/>
                </mxCell>
                <mxCell id="8" value="Editable Profile" style="shape=note;whiteSpace=wrap;html=1;backgroundOutline=1;darkOpacity=0.05;fillColor=#b0deb3;strokeColor=none;fontSize=16;fontStyle=0;rotation=0;shadow=1;" parent="2" vertex="1">
                    <mxGeometry x="80" y="370" width="120" height="120" as="geometry"/>
                </mxCell>
                <mxCell id="9" value="User" style="shape=note;whiteSpace=wrap;html=1;backgroundOutline=1;darkOpacity=0.05;fillColor=#fee750;strokeColor=none;fontSize=16;fontStyle=0;rotation=0;shadow=1;" parent="2" vertex="1">
                    <mxGeometry x="300" y="370" width="120" height="120" as="geometry"/>
                </mxCell>
                <mxCell id="10" value="Save Profile Changes" style="shape=note;whiteSpace=wrap;html=1;backgroundOutline=1;darkOpacity=0.05;fillColor=#a7c5fc;strokeColor=none;fontSize=16;fontStyle=0;rotation=0;shadow=1;" parent="2" vertex="1">
                    <mxGeometry x="520" y="370" width="120" height="120" as="geometry"/>
                </mxCell>
                <mxCell id="11" value="Validate Profile Data" style="shape=note;whiteSpace=wrap;html=1;backgroundOutline=1;darkOpacity=0.05;fillColor=#fef5b2;strokeColor=none;fontSize=16;fontStyle=0;rotation=0;shadow=1;" parent="2" vertex="1">
                    <mxGeometry x="740" y="340" width="240" height="180" as="geometry"/>
                </mxCell>
                <mxCell id="12" value="Profile Data Validated" style="shape=note;whiteSpace=wrap;html=1;backgroundOutline=1;darkOpacity=0.05;fillColor=#feae57;strokeColor=none;fontSize=16;fontStyle=0;rotation=0;shadow=1;" parent="2" vertex="1">
                    <mxGeometry x="1080" y="370" width="120" height="120" as="geometry"/>
                </mxCell>
                <mxCell id="13" value="Persist Profile Changes" style="shape=note;whiteSpace=wrap;html=1;backgroundOutline=1;darkOpacity=0.05;fillColor=#da99e6;strokeColor=none;fontSize=16;fontStyle=0;rotation=0;shadow=1;" parent="2" vertex="1">
                    <mxGeometry x="1300" y="370" width="120" height="120" as="geometry"/>
                </mxCell>
                <mxCell id="14" value="Profile Updated" style="shape=note;whiteSpace=wrap;html=1;backgroundOutline=1;darkOpacity=0.05;fillColor=#feae57;strokeColor=none;fontSize=16;fontStyle=0;rotation=0;shadow=1;" parent="2" vertex="1">
                    <mxGeometry x="1520" y="370" width="120" height="120" as="geometry"/>
                </mxCell>
                <mxCell id="15" style="edgeStyle=orthogonalEdgeStyle;rounded=0;orthogonalLoop=1;jettySize=auto;html=1;noEdgeStyle=1;orthogonal=1;" parent="2" source="3" target="4" edge="1">
                    <mxGeometry relative="1" as="geometry">
                        <Array as="points">
                            <mxPoint x="212" y="190"/>
                            <mxPoint x="288" y="190"/>
                        </Array>
                    </mxGeometry>
                </mxCell>
                <mxCell id="16" style="edgeStyle=orthogonalEdgeStyle;rounded=0;orthogonalLoop=1;jettySize=auto;html=1;noEdgeStyle=1;orthogonal=1;" parent="2" source="4" target="5" edge="1">
                    <mxGeometry relative="1" as="geometry">
                        <Array as="points">
                            <mxPoint x="432" y="190"/>
                            <mxPoint x="508" y="190"/>
                        </Array>
                    </mxGeometry>
                </mxCell>
                <mxCell id="17" style="edgeStyle=orthogonalEdgeStyle;rounded=0;orthogonalLoop=1;jettySize=auto;html=1;noEdgeStyle=1;orthogonal=1;" parent="2" source="5" target="6" edge="1">
                    <mxGeometry relative="1" as="geometry">
                        <Array as="points">
                            <mxPoint x="652" y="190"/>
                            <mxPoint x="728" y="190"/>
                        </Array>
                    </mxGeometry>
                </mxCell>
                <mxCell id="18" style="edgeStyle=orthogonalEdgeStyle;rounded=0;orthogonalLoop=1;jettySize=auto;html=1;noEdgeStyle=1;orthogonal=1;" parent="2" source="6" target="7" edge="1">
                    <mxGeometry relative="1" as="geometry">
                        <Array as="points">
                            <mxPoint x="992" y="190"/>
                            <mxPoint x="1068" y="190"/>
                        </Array>
                    </mxGeometry>
                </mxCell>
                <mxCell id="19" style="edgeStyle=orthogonalEdgeStyle;rounded=0;orthogonalLoop=1;jettySize=auto;html=1;noEdgeStyle=1;orthogonal=1;" parent="2" source="8" target="9" edge="1">
                    <mxGeometry relative="1" as="geometry">
                        <Array as="points">
                            <mxPoint x="212" y="430"/>
                            <mxPoint x="288" y="430"/>
                        </Array>
                    </mxGeometry>
                </mxCell>
                <mxCell id="20" style="edgeStyle=orthogonalEdgeStyle;rounded=0;orthogonalLoop=1;jettySize=auto;html=1;noEdgeStyle=1;orthogonal=1;" parent="2" source="9" target="10" edge="1">
                    <mxGeometry relative="1" as="geometry">
                        <Array as="points">
                            <mxPoint x="432" y="430"/>
                            <mxPoint x="508" y="430"/>
                        </Array>
                    </mxGeometry>
                </mxCell>
                <mxCell id="21" style="edgeStyle=orthogonalEdgeStyle;rounded=0;orthogonalLoop=1;jettySize=auto;html=1;noEdgeStyle=1;orthogonal=1;" parent="2" source="10" target="11" edge="1">
                    <mxGeometry relative="1" as="geometry">
                        <Array as="points">
                            <mxPoint x="652" y="430"/>
                            <mxPoint x="728" y="430"/>
                        </Array>
                    </mxGeometry>
                </mxCell>
                <mxCell id="22" style="edgeStyle=orthogonalEdgeStyle;rounded=0;orthogonalLoop=1;jettySize=auto;html=1;noEdgeStyle=1;orthogonal=1;" parent="2" source="11" target="12" edge="1">
                    <mxGeometry relative="1" as="geometry">
                        <Array as="points">
                            <mxPoint x="992" y="430"/>
                            <mxPoint x="1068" y="430"/>
                        </Array>
                    </mxGeometry>
                </mxCell>
                <mxCell id="23" style="edgeStyle=orthogonalEdgeStyle;rounded=0;orthogonalLoop=1;jettySize=auto;html=1;noEdgeStyle=1;orthogonal=1;" parent="2" source="12" target="13" edge="1">
                    <mxGeometry relative="1" as="geometry">
                        <Array as="points">
                            <mxPoint x="1212" y="430"/>
                            <mxPoint x="1288" y="430"/>
                        </Array>
                    </mxGeometry>
                </mxCell>
                <mxCell id="24" style="edgeStyle=orthogonalEdgeStyle;rounded=0;orthogonalLoop=1;jettySize=auto;html=1;noEdgeStyle=1;orthogonal=1;" parent="2" source="13" target="14" edge="1">
                    <mxGeometry relative="1" as="geometry">
                        <Array as="points">
                            <mxPoint x="1432" y="430"/>
                            <mxPoint x="1508" y="430"/>
                        </Array>
                    </mxGeometry>
                </mxCell>
            </root>
        </mxGraphModel>
    </diagram>
</mxfile>